<svg width="21" height="20" viewBox="0 0 21 20" fill="none" xmlns="http://www.w3.org/2000/svg">
<path d="M11.3337 9.16667H15.3337C16.2671 9.16667 16.7338 9.16667 17.0903 9.34832C17.4039 9.50811 17.6589 9.76308 17.8187 10.0767C18.0003 10.4332 18.0003 10.8999 18.0003 11.8333V17.5M11.3337 17.5V5.16667C11.3337 4.23325 11.3337 3.76654 11.152 3.41002C10.9922 3.09641 10.7372 2.84144 10.4236 2.68166C10.0671 2.5 9.60041 2.5 8.66699 2.5H5.66699C4.73357 2.5 4.26686 2.5 3.91034 2.68166C3.59674 2.84144 3.34177 3.09641 3.18198 3.41002C3.00033 3.76654 3.00033 4.23325 3.00033 5.16667V17.5M18.8337 17.5H2.16699M5.91699 5.83333H8.41699M5.91699 9.16667H8.41699M5.91699 12.5H8.41699" stroke="#667085" stroke-linecap="round" stroke-linejoin="round"/>
</svg>
