<svg width="22" height="22" viewBox="0 0 22 22" fill="none" xmlns="http://www.w3.org/2000/svg">
<g clip-path="url(#clip0_205_13157)">
<path fill-rule="evenodd" clip-rule="evenodd" d="M12 2C11.0863 2 10.1901 2.25913 9.40875 2.74925L4.40875 5.88556C3.67349 6.34675 3.06552 6.99639 2.64359 7.77173C2.22165 8.54708 1.99999 9.42193 2 10.3118V16.8246C2 18.1972 2.52678 19.5136 3.46447 20.4842C4.40215 21.4547 5.67392 22 7 22H17C18.3261 22 19.5979 21.4547 20.5355 20.4842C21.4732 19.5136 22 18.1972 22 16.8246V10.3108C21.9998 9.42111 21.778 8.54627 21.3561 7.77117C20.9342 6.99607 20.3263 6.34664 19.5913 5.88557L14.5913 2.74926C13.8099 2.25914 12.9137 2 12 2ZM10.4453 4.51971C10.9141 4.22565 11.4518 4.07017 12 4.07017C12.5482 4.07017 13.0859 4.22565 13.5547 4.51971L18.5547 7.65602C18.9958 7.93266 19.3605 8.32233 19.6137 8.78739C19.8668 9.25239 19.9998 9.77706 20 10.3108V16.8246C20 17.6481 19.6839 18.438 19.1213 19.0203C18.5587 19.6027 17.7956 19.9298 17 19.9298H16V16.8246C16 15.7265 15.5786 14.6734 14.8284 13.8969C14.0783 13.1204 13.0609 12.6842 12 12.6842C10.9391 12.6842 9.92172 13.1204 9.17157 13.8969C8.42143 14.6734 8 15.7265 8 16.8246V19.9298H7C6.20435 19.9298 5.44129 19.6027 4.87868 19.0203C4.31607 18.438 4 17.6481 4 16.8246V10.3118C3.99999 9.77788 4.13299 9.25294 4.38615 8.78773C4.63931 8.32252 5.00409 7.93274 5.44525 7.65603L10.4453 4.51971ZM13.4142 15.3607C13.7893 15.749 14 16.2755 14 16.8246V19.9298H10V16.8246C10 16.2755 10.2107 15.749 10.5858 15.3607C10.9609 14.9725 11.4696 14.7544 12 14.7544C12.5304 14.7544 13.0391 14.9725 13.4142 15.3607Z" fill="#46474C" stroke="white" stroke-width="0.53" stroke-linecap="round" stroke-linejoin="round"/>
</g>
<defs>
<clipPath id="clip0_205_13157">
<rect width="22" height="22" fill="white"/>
</clipPath>
</defs>
</svg>
