<svg width="48" height="48" viewBox="0 0 48 48" fill="none" xmlns="http://www.w3.org/2000/svg">
<g filter="url(#filter0_d_200_7522)">
<rect x="2" y="1" width="44" height="44" rx="10" fill="white"/>
<rect x="2.5" y="1.5" width="43" height="43" rx="9.5" stroke="#CBD5E1"/>
<path d="M21.1875 19.25C21.1877 20.0815 20.9115 20.8895 20.4024 21.547C19.8933 22.2044 19.1801 22.674 18.375 22.8819L18.375 33.3125C18.3754 33.5468 18.2881 33.7727 18.1303 33.9458C17.9725 34.119 17.7555 34.2267 17.5222 34.2479C17.2889 34.2691 17.0561 34.2021 16.8697 34.0602C16.6833 33.9183 16.5567 33.7118 16.515 33.4813L16.5 33.3125L16.4981 22.8819C15.6923 22.6747 14.9783 22.2054 14.4685 21.5479C13.9586 20.8904 13.6819 20.082 13.6819 19.25C13.6819 18.418 13.9586 17.6096 14.4685 16.9521C14.9783 16.2946 15.6923 15.8253 16.4981 15.6181L16.5 12.6875C16.4996 12.4532 16.5869 12.2273 16.7447 12.0542C16.9025 11.881 17.1195 11.7733 17.3528 11.7521C17.5861 11.7309 17.8189 11.7979 18.0053 11.9398C18.1917 12.0817 18.3183 12.2882 18.36 12.5188L18.375 12.6875L18.375 15.6181C19.1801 15.826 19.8933 16.2956 20.4024 16.953C20.9115 17.6105 21.1877 18.4185 21.1875 19.25ZM19.3125 19.25C19.3125 18.7527 19.115 18.2758 18.7633 17.9242C18.4117 17.5725 17.9348 17.375 17.4375 17.375C16.9402 17.375 16.4633 17.5725 16.1117 17.9242C15.76 18.2758 15.5625 18.7527 15.5625 19.25C15.5625 19.7473 15.76 20.2242 16.1117 20.5758C16.4633 20.9275 16.9402 21.125 17.4375 21.125C17.9348 21.125 18.4117 20.9275 18.7633 20.5758C19.115 20.2242 19.3125 19.7473 19.3125 19.25ZM34.3125 26.75C34.3127 27.5815 34.0365 28.3895 33.5274 29.047C33.0183 29.7044 32.3051 30.174 31.5 30.3819L31.5 33.3125C31.5004 33.5468 31.4131 33.7727 31.2553 33.9458C31.0975 34.119 30.8805 34.2267 30.6472 34.2479C30.4139 34.2691 30.1811 34.2021 29.9947 34.0602C29.8083 33.9183 29.6817 33.7118 29.64 33.4813L29.625 33.3125L29.6231 30.3819C28.8173 30.1747 28.1033 29.7054 27.5935 29.0479C27.0836 28.3904 26.8069 27.582 26.8069 26.75C26.8069 25.918 27.0836 25.1096 27.5935 24.4521C28.1033 23.7946 28.8173 23.3253 29.6231 23.1181L29.625 12.6875C29.6246 12.4532 29.7119 12.2273 29.8697 12.0542C30.0275 11.881 30.2445 11.7733 30.4778 11.7521C30.7111 11.7309 30.9439 11.7979 31.1303 11.9398C31.3167 12.0817 31.4433 12.2882 31.485 12.5188L31.5 12.6875L31.5 23.1181C32.3051 23.326 33.0183 23.7956 33.5274 24.453C34.0365 25.1105 34.3127 25.9185 34.3125 26.75ZM32.4375 26.75C32.4375 26.2527 32.24 25.7758 31.8883 25.4242C31.5367 25.0725 31.0598 24.875 30.5625 24.875C30.0652 24.875 29.5883 25.0725 29.2367 25.4242C28.885 25.7758 28.6875 26.2527 28.6875 26.75C28.6875 27.2473 28.885 27.7242 29.2367 28.0758C29.5883 28.4275 30.0652 28.625 30.5625 28.625C31.0598 28.625 31.5367 28.4275 31.8883 28.0758C32.24 27.7242 32.4375 27.2473 32.4375 26.75Z" fill="#354050"/>
</g>
<defs>
<filter id="filter0_d_200_7522" x="0" y="0" width="48" height="48" filterUnits="userSpaceOnUse" color-interpolation-filters="sRGB">
<feFlood flood-opacity="0" result="BackgroundImageFix"/>
<feColorMatrix in="SourceAlpha" type="matrix" values="0 0 0 0 0 0 0 0 0 0 0 0 0 0 0 0 0 0 127 0" result="hardAlpha"/>
<feOffset dy="1"/>
<feGaussianBlur stdDeviation="1"/>
<feColorMatrix type="matrix" values="0 0 0 0 0.0627451 0 0 0 0 0.0941176 0 0 0 0 0.156863 0 0 0 0.05 0"/>
<feBlend mode="normal" in2="BackgroundImageFix" result="effect1_dropShadow_200_7522"/>
<feBlend mode="normal" in="SourceGraphic" in2="effect1_dropShadow_200_7522" result="shape"/>
</filter>
</defs>
</svg>
