<svg width="48" height="48" viewBox="0 0 48 48" fill="none" xmlns="http://www.w3.org/2000/svg">
<g filter="url(#filter0_d_200_7578)">
<rect x="2" y="1" width="44" height="44" rx="10" fill="white"/>
<rect x="2.5" y="1.5" width="43" height="43" rx="9.5" stroke="#CBD5E1"/>
<path d="M22.7143 21.1429H25.2857M20.1428 17.7143L21.8571 18.5714L22.9462 15.3041C23.171 14.6296 23.2834 14.2924 23.4919 14.0431C23.676 13.823 23.9125 13.6526 24.1795 13.5475C24.482 13.4286 24.8374 13.4286 25.5483 13.4286H31.8802C32.5911 13.4286 32.9465 13.4286 33.249 13.5475C33.516 13.6526 33.7525 13.823 33.9366 14.0431C34.1451 14.2924 34.2575 14.6296 34.4823 15.3041L35.5714 18.5714L37.2857 17.7143M32.1428 21.1429H34.7143M24.2571 18.5714H33.1714C34.6115 18.5714 35.3316 18.5714 35.8817 18.8517C36.3655 19.0982 36.7589 19.4916 37.0054 19.9755C37.2857 20.5255 37.2857 21.2456 37.2857 22.6857V25C37.2857 25.3983 37.2857 25.5974 37.2527 25.763C37.1175 26.4431 36.5859 26.9747 35.9058 27.1099C35.7402 27.1429 35.5411 27.1429 35.1428 27.1429H34.7143C33.7675 27.1429 33 26.3753 33 25.4286C33 25.1919 32.8081 25 32.5714 25H24.8571C24.6204 25 24.4285 25.1919 24.4285 25.4286C24.4285 26.3753 23.661 27.1429 22.7143 27.1429H22.2857C21.8874 27.1429 21.6883 27.1429 21.5227 27.1099C20.8426 26.9747 20.311 26.4431 20.1758 25.763C20.1428 25.5974 20.1428 25.3983 20.1428 25V22.6857C20.1428 21.2456 20.1428 20.5255 20.4231 19.9755C20.6696 19.4916 21.063 19.0982 21.5468 18.8517C22.0969 18.5714 22.817 18.5714 24.2571 18.5714Z" stroke="#354050" stroke-linecap="round" stroke-linejoin="round"/>
<path d="M13.5 24.3572L14.3276 18.9572L14.7414 18.3572H23.8448L25.5 24.3572H13.5Z" fill="white"/>
<path d="M23.7429 23.7143H14.8286C13.3885 23.7143 12.6684 23.7143 12.1184 23.9945C11.6345 24.2411 11.2412 24.6344 10.9946 25.1183C10.7144 25.6684 10.7144 26.3884 10.7144 27.8286V30.1428C10.7144 30.5411 10.7144 30.7403 10.7473 30.9059C10.8826 31.5859 11.4142 32.1175 12.0942 32.2528C12.2598 32.2857 12.4589 32.2857 12.8572 32.2857H13.2858C14.2326 32.2857 15.0001 31.5182 15.0001 30.5714C15.0001 30.3347 15.1919 30.1428 15.4286 30.1428H23.1429C23.3796 30.1428 23.5715 30.3347 23.5715 30.5714C23.5715 31.5182 24.339 32.2857 25.2858 32.2857H25.7144C26.1126 32.2857 26.3118 32.2857 26.4774 32.2528C27.1574 32.1175 27.689 31.5859 27.8243 30.9059C27.8572 30.7403 27.8572 30.5411 27.8572 30.1428V27.8286C27.8572 26.3884 27.8572 25.6684 27.5769 25.1183C27.3304 24.6344 26.937 24.2411 26.4532 23.9945C25.9031 23.7143 25.1831 23.7143 23.7429 23.7143Z" fill="white"/>
<path d="M13.2858 26.2857H15.8572M10.7144 22.8571L12.4286 23.7143L13.5178 20.4469C13.7426 19.7725 13.855 19.4353 14.0635 19.186C14.2476 18.9658 14.484 18.7954 14.7511 18.6904C15.0535 18.5714 15.409 18.5714 16.1199 18.5714H22.4517C23.1626 18.5714 23.518 18.5714 23.8205 18.6904C24.0876 18.7954 24.324 18.9658 24.5081 19.186C24.7166 19.4353 24.829 19.7725 25.0538 20.4469L26.1429 23.7143L27.8572 22.8571M22.7144 26.2857H25.2858M14.8286 23.7143H23.7429C25.1831 23.7143 25.9031 23.7143 26.4532 23.9945C26.937 24.2411 27.3304 24.6344 27.5769 25.1183C27.8572 25.6684 27.8572 26.3884 27.8572 27.8286V30.1428C27.8572 30.5411 27.8572 30.7403 27.8243 30.9059C27.689 31.5859 27.1574 32.1175 26.4774 32.2528C26.3118 32.2857 26.1126 32.2857 25.7144 32.2857H25.2858C24.339 32.2857 23.5715 31.5182 23.5715 30.5714C23.5715 30.3347 23.3796 30.1428 23.1429 30.1428H15.4286C15.1919 30.1428 15.0001 30.3347 15.0001 30.5714C15.0001 31.5182 14.2326 32.2857 13.2858 32.2857H12.8572C12.4589 32.2857 12.2598 32.2857 12.0942 32.2528C11.4142 32.1175 10.8826 31.5859 10.7473 30.9059C10.7144 30.7403 10.7144 30.5411 10.7144 30.1428V27.8286C10.7144 26.3884 10.7144 25.6684 10.9946 25.1183C11.2412 24.6344 11.6345 24.2411 12.1184 23.9945C12.6684 23.7143 13.3885 23.7143 14.8286 23.7143Z" stroke="#354050" stroke-linecap="round" stroke-linejoin="round"/>
</g>
<defs>
<filter id="filter0_d_200_7578" x="0" y="0" width="48" height="48" filterUnits="userSpaceOnUse" color-interpolation-filters="sRGB">
<feFlood flood-opacity="0" result="BackgroundImageFix"/>
<feColorMatrix in="SourceAlpha" type="matrix" values="0 0 0 0 0 0 0 0 0 0 0 0 0 0 0 0 0 0 127 0" result="hardAlpha"/>
<feOffset dy="1"/>
<feGaussianBlur stdDeviation="1"/>
<feColorMatrix type="matrix" values="0 0 0 0 0.0627451 0 0 0 0 0.0941176 0 0 0 0 0.156863 0 0 0 0.05 0"/>
<feBlend mode="normal" in2="BackgroundImageFix" result="effect1_dropShadow_200_7578"/>
<feBlend mode="normal" in="SourceGraphic" in2="effect1_dropShadow_200_7578" result="shape"/>
</filter>
</defs>
</svg>
