<svg width="20" height="20" viewBox="0 0 20 20" fill="none" xmlns="http://www.w3.org/2000/svg">
<path d="M8.125 7.49999C8.12514 8.05434 7.94103 8.59301 7.60162 9.03131C7.26221 9.4696 6.78674 9.78265 6.25 9.92124L6.25 16.875C6.25029 17.0312 6.19209 17.1818 6.08686 17.2972C5.98164 17.4126 5.83702 17.4845 5.68147 17.4986C5.52593 17.5127 5.37074 17.4681 5.24646 17.3735C5.12218 17.2789 5.03782 17.1412 5.01 16.9875L5 16.875L4.99875 9.92124C4.46155 9.78312 3.98553 9.47027 3.64564 9.03193C3.30575 8.59359 3.12128 8.05467 3.12128 7.49999C3.12128 6.94532 3.30575 6.40639 3.64564 5.96805C3.98553 5.52972 4.46155 5.21686 4.99875 5.07874L5 3.12499C4.99971 2.96881 5.05791 2.81818 5.16314 2.70276C5.26836 2.58735 5.41298 2.51551 5.56853 2.5014C5.72407 2.48729 5.87926 2.53192 6.00354 2.62652C6.12782 2.72111 6.21217 2.85881 6.24 3.01249L6.25 3.12499L6.25 5.07874C6.78674 5.21733 7.26221 5.53038 7.60162 5.96868C7.94103 6.40697 8.12514 6.94564 8.125 7.49999ZM6.875 7.49999C6.875 7.16847 6.7433 6.85053 6.50888 6.61611C6.27446 6.38169 5.95652 6.24999 5.625 6.24999C5.29348 6.24999 4.97554 6.38169 4.74112 6.61611C4.5067 6.85053 4.375 7.16847 4.375 7.49999C4.375 7.83151 4.5067 8.14945 4.74112 8.38388C4.97554 8.6183 5.29348 8.74999 5.625 8.74999C5.95652 8.74999 6.27446 8.6183 6.50888 8.38388C6.7433 8.14945 6.875 7.83151 6.875 7.49999ZM16.875 12.5C16.8751 13.0543 16.691 13.593 16.3516 14.0313C16.0122 14.4696 15.5367 14.7827 15 14.9212L15 16.875C15.0003 17.0312 14.9421 17.1818 14.8369 17.2972C14.7316 17.4126 14.587 17.4845 14.4315 17.4986C14.2759 17.5127 14.1207 17.4681 13.9965 17.3735C13.8722 17.2789 13.7878 17.1412 13.76 16.9875L13.75 16.875L13.7487 14.9212C13.2115 14.7831 12.7355 14.4703 12.3956 14.0319C12.0557 13.5936 11.8713 13.0547 11.8713 12.5C11.8713 11.9453 12.0557 11.4064 12.3956 10.9681C12.7355 10.5297 13.2115 10.2169 13.7487 10.0787L13.75 3.12499C13.7497 2.96881 13.8079 2.81818 13.9131 2.70276C14.0184 2.58735 14.163 2.51551 14.3185 2.5014C14.4741 2.48729 14.6293 2.53192 14.7535 2.62652C14.8778 2.72111 14.9622 2.85881 14.99 3.01249L15 3.12499L15 10.0787C15.5367 10.2173 16.0122 10.5304 16.3516 10.9687C16.691 11.407 16.8751 11.9456 16.875 12.5ZM15.625 12.5C15.625 12.1685 15.4933 11.8505 15.2589 11.6161C15.0245 11.3817 14.7065 11.25 14.375 11.25C14.0435 11.25 13.7255 11.3817 13.4911 11.6161C13.2567 11.8505 13.125 12.1685 13.125 12.5C13.125 12.8315 13.2567 13.1495 13.4911 13.3839C13.7255 13.6183 14.0435 13.75 14.375 13.75C14.7065 13.75 15.0245 13.6183 15.2589 13.3839C15.4933 13.1495 15.625 12.8315 15.625 12.5Z" fill="#354050"/>
</svg>
