<svg width="20" height="20" viewBox="0 0 20 20" fill="none" xmlns="http://www.w3.org/2000/svg">
<path d="M10.491 9.16626L8.57435 7.25793C8.49624 7.18046 8.43425 7.08829 8.39194 6.98674C8.34963 6.88519 8.32785 6.77627 8.32785 6.66626C8.32785 6.55625 8.34963 6.44733 8.39194 6.34578C8.43425 6.24423 8.49624 6.15206 8.57435 6.07459C8.65182 5.99649 8.74399 5.93449 8.84554 5.89218C8.94709 5.84987 9.05601 5.82809 9.16602 5.82809C9.27603 5.82809 9.38495 5.84987 9.4865 5.89218C9.58805 5.93449 9.68022 5.99649 9.75768 6.07459L13.091 9.40793C13.1669 9.48718 13.2264 9.58063 13.266 9.68293C13.3494 9.88581 13.3494 10.1134 13.266 10.3163C13.2264 10.4186 13.1669 10.512 13.091 10.5913L9.75768 13.9246C9.67998 14.0023 9.58774 14.0639 9.48622 14.106C9.38471 14.148 9.2759 14.1697 9.16602 14.1697C9.05613 14.1697 8.94733 14.148 8.84581 14.106C8.74429 14.0639 8.65205 14.0023 8.57435 13.9246C8.49665 13.8469 8.43502 13.7547 8.39297 13.6531C8.35092 13.5516 8.32927 13.4428 8.32927 13.3329C8.32927 13.223 8.35092 13.1142 8.39297 13.0127C8.43502 12.9112 8.49665 12.819 8.57435 12.7413L10.491 10.8329L2.49935 10.8329C2.27834 10.8329 2.06637 10.7451 1.91009 10.5888C1.75381 10.4326 1.66602 10.2206 1.66602 9.99959C1.66602 9.77858 1.75381 9.56662 1.91009 9.41034C2.06638 9.25406 2.27834 9.16626 2.49935 9.16626L10.491 9.16626ZM9.99935 18.3329C8.44193 18.3399 6.91372 17.9102 5.58807 17.0928C4.26243 16.2753 3.19239 15.1027 2.49935 13.7079C2.39989 13.509 2.38353 13.2787 2.45385 13.0678C2.52418 12.8568 2.67544 12.6824 2.87435 12.5829C3.07326 12.4835 3.30354 12.4671 3.51451 12.5374C3.72549 12.6078 3.89989 12.759 3.99935 12.9579C4.52618 14.0218 5.32754 14.9257 6.32064 15.5763C7.31374 16.2268 8.46253 16.6003 9.64831 16.6583C10.8341 16.7162 12.0138 16.4564 13.0656 15.9058C14.1174 15.3552 15.0031 14.5337 15.6311 13.5263C16.2591 12.5188 16.6068 11.3619 16.638 10.1751C16.6693 8.98833 16.3831 7.81473 15.8089 6.77558C15.2348 5.73644 14.3936 4.86947 13.3723 4.26424C12.351 3.65901 11.1865 3.3375 9.99935 3.33293C8.75675 3.32755 7.53781 3.67262 6.48243 4.32855C5.42704 4.98448 4.57798 5.92469 4.03268 7.04126C3.93323 7.24017 3.75883 7.39143 3.54785 7.46175C3.33687 7.53208 3.1066 7.51571 2.90768 7.41626C2.70877 7.3168 2.55752 7.1424 2.48719 6.93142C2.41686 6.72044 2.43323 6.49017 2.53268 6.29126C3.19337 4.96167 4.19729 3.83273 5.44058 3.02122C6.68387 2.20971 8.12139 1.7451 9.60445 1.67544C11.0875 1.60578 12.5623 1.9336 13.8761 2.625C15.19 3.3164 16.2953 4.34627 17.0777 5.60808C17.8601 6.86988 18.2912 8.31781 18.3264 9.80209C18.3616 11.2864 17.9996 12.7531 17.2779 14.0506C16.5562 15.348 15.5009 16.4291 14.2212 17.182C12.9416 17.9349 11.484 18.3322 9.99935 18.3329Z" fill="#71839B"/>
</svg>
