<svg width="20" height="20" viewBox="0 0 20 20" fill="none" xmlns="http://www.w3.org/2000/svg">
<path d="M9.50898 10.8337L11.4257 12.7421C11.5038 12.8195 11.5658 12.9117 11.6081 13.0133C11.6504 13.1148 11.6721 13.2237 11.6721 13.3337C11.6721 13.4438 11.6504 13.5527 11.6081 13.6542C11.5658 13.7558 11.5038 13.8479 11.4257 13.9254C11.3482 14.0035 11.256 14.0655 11.1545 14.1078C11.0529 14.1501 10.944 14.1719 10.834 14.1719C10.724 14.1719 10.6151 14.1501 10.5135 14.1078C10.412 14.0655 10.3198 14.0035 10.2423 13.9254L6.90898 10.5921C6.83312 10.5128 6.77365 10.4194 6.73398 10.3171C6.65064 10.1142 6.65064 9.88663 6.73398 9.68374C6.77365 9.58145 6.83312 9.488 6.90898 9.40874L10.2423 6.07541C10.32 5.99771 10.4123 5.93608 10.5138 5.89403C10.6153 5.85198 10.7241 5.83033 10.834 5.83033C10.9439 5.83033 11.0527 5.85198 11.1542 5.89403C11.2557 5.93608 11.348 5.99771 11.4257 6.07541C11.5033 6.15311 11.565 6.24535 11.607 6.34687C11.6491 6.44839 11.6707 6.55719 11.6707 6.66708C11.6707 6.77696 11.6491 6.88577 11.607 6.98728C11.565 7.0888 11.5033 7.18104 11.4257 7.25874L9.50898 9.16708H17.5007C17.7217 9.16708 17.9336 9.25487 18.0899 9.41115C18.2462 9.56743 18.334 9.7794 18.334 10.0004C18.334 10.2214 18.2462 10.4334 18.0899 10.5897C17.9336 10.7459 17.7217 10.8337 17.5007 10.8337H9.50898ZM10.0007 1.66708C11.5581 1.66012 13.0863 2.08975 14.4119 2.90723C15.7376 3.72472 16.8076 4.89733 17.5007 6.29208C17.6001 6.49099 17.6165 6.72126 17.5461 6.93224C17.4758 7.14322 17.3246 7.31762 17.1257 7.41707C16.9267 7.51653 16.6965 7.5329 16.4855 7.46257C16.2745 7.39224 16.1001 7.24099 16.0007 7.04208C15.4738 5.97818 14.6725 5.07426 13.6794 4.42373C12.6863 3.77321 11.5375 3.39967 10.3517 3.34174C9.16591 3.2838 7.98617 3.54356 6.93439 4.09417C5.8826 4.64478 4.99693 5.46627 4.36889 6.47374C3.74086 7.48121 3.39325 8.63811 3.36198 9.82489C3.33072 11.0117 3.61693 12.1853 4.19105 13.2244C4.76517 14.2636 5.60637 15.1305 6.6277 15.7358C7.64904 16.341 8.81347 16.6625 10.0007 16.6671C11.2432 16.6725 12.4622 16.3274 13.5176 15.6714C14.573 15.0155 15.422 14.0753 15.9673 12.9587C16.0668 12.7598 16.2412 12.6086 16.4522 12.5382C16.6631 12.4679 16.8934 12.4843 17.0923 12.5837C17.2912 12.6832 17.4425 12.8576 17.5128 13.0686C17.5831 13.2796 17.5668 13.5098 17.4673 13.7087C16.8066 15.0383 15.8027 16.1673 14.5594 16.9788C13.3161 17.7903 11.8786 18.2549 10.3955 18.3246C8.91249 18.3942 7.43775 18.0664 6.12386 17.375C4.80998 16.6836 3.70467 15.6537 2.92226 14.3919C2.13985 13.1301 1.70876 11.6822 1.67357 10.1979C1.63838 8.71363 2.00038 7.2469 2.72211 5.94943C3.44385 4.65197 4.49912 3.57088 5.77876 2.818C7.0584 2.06511 8.51595 1.66777 10.0007 1.66708Z" fill="#71839B"/>
</svg>
