<svg width="20" height="18" viewBox="0 0 20 18" fill="none" xmlns="http://www.w3.org/2000/svg">
<g clip-path="url(#clip0_205_13168)">
<path d="M9.143 7.85712H10.8573M7.42871 5.57141L8.57157 6.14284L9.29765 3.96459C9.44752 3.51498 9.52246 3.29017 9.66145 3.12397C9.78418 2.9772 9.94181 2.86359 10.1199 2.79356C10.3215 2.71426 10.5585 2.71426 11.0324 2.71426H15.2536C15.7275 2.71426 15.9645 2.71426 16.1661 2.79356C16.3442 2.86359 16.5018 2.9772 16.6245 3.12397C16.7635 3.29017 16.8385 3.51498 16.9883 3.96459L17.7144 6.14284L18.8573 5.57141M15.4287 7.85712H17.143M10.1716 6.14284H16.1144C17.0745 6.14284 17.5546 6.14284 17.9213 6.32968C18.2438 6.49404 18.5061 6.75629 18.6704 7.07885C18.8573 7.44556 18.8573 7.9256 18.8573 8.88569V10.4285C18.8573 10.6941 18.8573 10.8268 18.8353 10.9372C18.7451 11.3906 18.3907 11.745 17.9374 11.8352C17.827 11.8571 17.6942 11.8571 17.4287 11.8571H17.143C16.5118 11.8571 16.0001 11.3454 16.0001 10.7143C16.0001 10.5565 15.8722 10.4285 15.7144 10.4285H10.5716C10.4138 10.4285 10.2859 10.5565 10.2859 10.7143C10.2859 11.3454 9.77418 11.8571 9.143 11.8571H8.85728C8.59177 11.8571 8.45901 11.8571 8.34861 11.8352C7.89525 11.745 7.54085 11.3906 7.45067 10.9372C7.42871 10.8268 7.42871 10.6941 7.42871 10.4285V8.88569C7.42871 7.9256 7.42871 7.44556 7.61556 7.07885C7.77991 6.75629 8.04216 6.49404 8.36473 6.32968C8.73143 6.14284 9.21148 6.14284 10.1716 6.14284Z" stroke="#354050" stroke-linecap="round" stroke-linejoin="round"/>
</g>
<g clip-path="url(#clip1_205_13168)">
<path d="M3 10L3.55172 6.4L3.82759 6H9.89655L11 10H3Z" fill="white"/>
<path d="M9.82829 9.57139H3.88544C2.92535 9.57139 2.4453 9.57139 2.07859 9.75824C1.75603 9.92259 1.49378 10.1848 1.32942 10.5074C1.14258 10.8741 1.14258 11.3542 1.14258 12.3143V13.8571C1.14258 14.1226 1.14258 14.2554 1.16454 14.3658C1.25472 14.8191 1.60911 15.1735 2.06247 15.2637C2.17287 15.2857 2.30563 15.2857 2.57115 15.2857H2.85686C3.48805 15.2857 3.99972 14.774 3.99972 14.1428C3.99972 13.985 4.12764 13.8571 4.28544 13.8571H9.42829C9.58609 13.8571 9.71401 13.985 9.71401 14.1428C9.71401 14.774 10.2257 15.2857 10.8569 15.2857H11.1426C11.4081 15.2857 11.5409 15.2857 11.6513 15.2637C12.1046 15.1735 12.459 14.8191 12.5492 14.3658C12.5711 14.2554 12.5711 14.1226 12.5711 13.8571V12.3143C12.5711 11.3542 12.5711 10.8741 12.3843 10.5074C12.2199 10.1848 11.9577 9.92259 11.6351 9.75824C11.2684 9.57139 10.7884 9.57139 9.82829 9.57139Z" fill="white"/>
<path d="M2.85686 11.2857H4.57115M1.14258 8.99997L2.28544 9.57139L3.01152 7.39315C3.16139 6.94354 3.23632 6.71873 3.37531 6.55253C3.49805 6.40576 3.65567 6.29215 3.83372 6.22212C4.03535 6.14282 4.27232 6.14282 4.74625 6.14282H8.96748C9.44141 6.14282 9.67837 6.14282 9.88 6.22212C10.0581 6.29215 10.2157 6.40576 10.3384 6.55253C10.4774 6.71873 10.5523 6.94354 10.7022 7.39315L11.4283 9.57139L12.5712 8.99997M9.14258 11.2857H10.8569M3.88544 9.57139H9.82829C10.7884 9.57139 11.2684 9.57139 11.6351 9.75824C11.9577 9.92259 12.2199 10.1848 12.3843 10.5074C12.5712 10.8741 12.5712 11.3542 12.5712 12.3143V13.8571C12.5712 14.1226 12.5712 14.2554 12.5492 14.3658C12.459 14.8191 12.1046 15.1735 11.6513 15.2637C11.5409 15.2857 11.4081 15.2857 11.1426 15.2857H10.8569C10.2257 15.2857 9.71401 14.774 9.71401 14.1428C9.71401 13.985 9.58609 13.8571 9.42829 13.8571H4.28544C4.12764 13.8571 3.99972 13.985 3.99972 14.1428C3.99972 14.774 3.48805 15.2857 2.85686 15.2857H2.57115C2.30563 15.2857 2.17287 15.2857 2.06247 15.2637C1.60911 15.1735 1.25472 14.8191 1.16454 14.3658C1.14258 14.2554 1.14258 14.1226 1.14258 13.8571V12.3143C1.14258 11.3542 1.14258 10.8741 1.32942 10.5074C1.49378 10.1848 1.75603 9.92259 2.07859 9.75824C2.4453 9.57139 2.92535 9.57139 3.88544 9.57139Z" stroke="#354050" stroke-linecap="round" stroke-linejoin="round"/>
</g>
<defs>
<clipPath id="clip0_205_13168">
<rect width="13.7143" height="13.7143" fill="white" transform="translate(6.28613 0.428558)"/>
</clipPath>
<clipPath id="clip1_205_13168">
<rect width="13.7143" height="13.7143" fill="white" transform="translate(0 3.85712)"/>
</clipPath>
</defs>
</svg>
